<svg xmlns="http://www.w3.org/2000/svg" width="160" height="160" fill="none" viewBox="0 0 160 160"><path fill="#1A4049" d="M80 160C124.183 160 160 124.183 160 80C160 35.8172 124.183 0 80 0C35.8172 0 0 35.8172 0 80C0 124.183 35.8172 160 80 160Z"/><path fill="#fff" d="M91.43 45.71V91.43H114.28V45.71H91.43ZM68.57 68.57V45.71H45.71V114.28H91.43V91.43H68.57V68.57Z"/><path fill="#fff" d="M91.43 45.71V91.43H114.28V45.71H91.43ZM68.57 68.57V45.71H45.71V114.28H91.43V91.43H68.57V68.57Z"/><path fill="#817AFE" d="M91.4299 91.43H114.29V114.29H91.4299V91.43Z"/></svg>