<svg xmlns="http://www.w3.org/2000/svg" width="312" height="144" fill="none" viewBox="0 0 312 144"><rect width="312" height="144" fill="#F1F0FC" rx="8"/><g opacity=".2"><circle cx="155.933" cy="72.149" r="59.933" stroke="#657A80" stroke-linecap="square" stroke-width="1.357"/><ellipse cx="155.933" cy="72.26" stroke="#657A80" stroke-linecap="square" stroke-width="1.357" rx="43.587" ry="60.26"/><ellipse cx="156.368" cy="72.149" stroke="#657A80" stroke-linecap="square" stroke-width="1.357" rx="27.242" ry="59.933"/><ellipse cx="156.369" cy="72.149" stroke="#657A80" stroke-linecap="square" stroke-width="1.357" rx="10.897" ry="59.933"/></g><g opacity=".2"><mask id="mask0_35832_1410" width="120" height="121" x="96" y="12" maskUnits="userSpaceOnUse" style="mask-type:alpha"><circle cx="155.933" cy="72.149" r="59.254" fill="#92A1A5" stroke="#657A80" stroke-width="1.357"/></mask><g mask="url(#mask0_35832_1410)"><path stroke="#657A80" stroke-width="1.357" d="M96 48.1777C96 48.1777 109.076 59.2925 155.933 59.2925C202.789 59.2925 215.865 48.1777 215.865 48.1777"/><path stroke="#657A80" stroke-width="1.357" d="M96 28.3438C96 28.3438 109.076 45.7787 155.933 45.7787C202.789 45.7787 215.865 28.3438 215.865 28.3438"/><path stroke="#657A80" stroke-width="1.357" d="M96 2.19141C96 2.19141 109.076 33.1384 155.933 33.1384C202.789 33.1384 215.865 2.19141 215.865 2.19141"/><path stroke="#657A80" stroke-width="1.357" d="M96 -39.4336C96 -39.4336 109.076 21.3707 155.933 21.3707C202.789 21.3707 215.865 -39.4336 215.865 -39.4336"/><line x1="96" x2="215.865" y1="71.472" y2="71.472" stroke="#657A80" stroke-width="1.357"/><path stroke="#657A80" stroke-width="1.357" d="M215.867 95.6855C215.867 95.6855 202.79 84.5708 155.934 84.5708C109.078 84.5708 96.0016 95.6855 96.0016 95.6855"/><path stroke="#657A80" stroke-width="1.357" d="M215.867 115.518C215.867 115.518 202.79 98.0826 155.934 98.0826C109.078 98.0826 96.0016 115.518 96.0016 115.518"/><path stroke="#657A80" stroke-width="1.357" d="M215.867 141.672C215.867 141.672 202.79 110.725 155.934 110.725C109.078 110.725 96.0016 141.672 96.0016 141.672"/><path stroke="#657A80" stroke-width="1.357" d="M215.866 183.297C215.866 183.297 202.79 122.493 155.934 122.493C109.078 122.493 96.0013 183.297 96.0013 183.297"/></g></g><rect width="58.108" height="29.054" x="116.749" y="86.527" fill="url(#paint0_linear_35832_1410)" rx="14.527" transform="rotate(-180 116.749 86.5273)"/><ellipse cx="102.184" cy="72" fill="#817AFE" rx="14.565" ry="14.527"/><path fill="#fff" d="M106.258 67.9648H98.187V76.0354H106.258V67.9648Z"/><path fill="#6C65E5" d="M140.556 78.3887L140.232 70.291L133.381 74.6202L140.556 78.3887ZM121.749 69.1189L129.108 72.5139L128.369 64.4436L121.749 69.1189ZM137.182 73.0493L137.645 72.5217C136.53 71.5447 135.079 70.5495 133.191 69.6186L132.88 70.2481L132.57 70.8776C134.358 71.7589 135.705 72.6876 136.719 73.577L137.182 73.0493ZM132.88 70.2481L133.191 69.6186C131.302 68.6877 129.629 68.143 128.176 67.8544L128.039 68.5428L127.902 69.2312C129.225 69.4939 130.782 69.9964 132.57 70.8776L132.88 70.2481Z"/><rect width="17.432" height="32.541" x="147.284" y="55.73" fill="#1A4049" rx="3.486"/><path fill="#6C65E5" d="M171.444 78.3887L171.768 70.291L178.619 74.6202L171.444 78.3887ZM190.251 69.1189L182.892 72.5139L183.631 64.4436L190.251 69.1189ZM174.818 73.0493L174.355 72.5217C175.47 71.5447 176.921 70.5495 178.809 69.6186L179.12 70.2481L179.43 70.8776C177.642 71.7589 176.295 72.6876 175.281 73.577L174.818 73.0493ZM179.12 70.2481L178.809 69.6186C180.698 68.6877 182.371 68.143 183.824 67.8544L183.961 68.5428L184.098 69.2312C182.775 69.4939 181.218 69.9964 179.43 70.8776L179.12 70.2481Z"/><rect width="58.108" height="29.054" x="253.359" y="86.527" fill="url(#paint1_linear_35832_1410)" rx="14.527" transform="rotate(-180 253.359 86.5273)"/><ellipse cx="238.794" cy="72" fill="#1A4049" rx="14.565" ry="14.527"/><path fill="#EDF0F1" d="M242.867 67.9648H234.797V76.0354H242.867V67.9648Z"/><defs><linearGradient id="paint0_linear_35832_1410" x1="116.737" x2="174.889" y1="100.985" y2="100.985" gradientUnits="userSpaceOnUse"><stop stop-color="#1A4049" stop-opacity="0"/><stop offset="1" stop-color="#0E1A1D"/></linearGradient><linearGradient id="paint1_linear_35832_1410" x1="253.347" x2="311.499" y1="100.985" y2="100.985" gradientUnits="userSpaceOnUse"><stop stop-color="#657A80" stop-opacity="0"/><stop offset="1" stop-color="#1A4049" stop-opacity=".75"/></linearGradient></defs></svg>